<?xml version="1.0" standalone="no"?>
<!DOCTYPE svg PUBLIC "-//W3C//DTD SVG 20010904//EN"
 "http://www.w3.org/TR/2001/REC-SVG-20010904/DTD/svg10.dtd">
<svg version="1.0" xmlns="http://www.w3.org/2000/svg"
 width="700.000000pt" height="700.000000pt" viewBox="0 0 700.000000 700.000000"
 preserveAspectRatio="xMidYMid meet">
<metadata>
Created by potrace 1.11, written by Peter Selinger 2001-2013
</metadata>
<g transform="translate(0.000000,700.000000) scale(0.100000,-0.100000)"
fill="#000000" stroke="none">
<path d="M3278 6996 c-1 -2 -41 -6 -88 -10 -47 -4 -98 -9 -114 -12 -15 -2 -47
-7 -70 -9 -22 -2 -52 -6 -66 -9 -14 -3 -43 -7 -65 -11 -22 -3 -47 -7 -55 -10
-8 -2 -26 -6 -40 -9 -385 -69 -926 -301 -1262 -541 -31 -22 -66 -47 -78 -55
-45 -30 -187 -145 -265 -214 -361 -321 -680 -754 -865 -1176 -23 -52 -46 -104
-51 -115 -50 -109 -145 -412 -175 -560 -3 -15 -21 -99 -29 -135 0 -3 -4 -27
-9 -55 -4 -27 -9 -63 -12 -79 -3 -16 -7 -50 -9 -75 -3 -25 -8 -82 -12 -126
-16 -161 -8 -572 13 -710 2 -16 6 -48 9 -70 17 -152 63 -362 122 -555 70 -230
221 -567 343 -763 30 -48 60 -95 65 -105 24 -42 133 -191 208 -285 203 -253
444 -478 712 -668 50 -35 100 -69 110 -76 11 -6 61 -36 110 -66 231 -140 565
-289 783 -348 17 -5 49 -14 70 -19 20 -6 44 -12 52 -14 8 -2 43 -11 77 -20 82
-22 234 -50 323 -61 25 -3 56 -7 69 -10 103 -20 557 -27 726 -12 113 11 243
28 320 43 11 2 36 7 55 10 19 3 62 13 95 21 33 8 67 16 75 18 37 8 207 58 292
86 182 61 533 223 630 290 14 11 29 19 32 19 4 0 12 5 19 10 7 6 62 43 122 83
106 69 292 211 365 277 74 68 217 209 265 261 106 116 125 139 206 245 344
453 562 948 663 1509 14 77 28 165 31 195 3 30 8 73 11 95 9 72 12 518 3 607
-13 144 -22 210 -39 308 -6 36 -13 79 -16 95 -22 126 -125 478 -169 580 -7 17
-32 75 -55 130 -114 274 -315 599 -529 855 -110 132 -314 335 -431 430 -30 25
-57 48 -60 51 -3 3 -50 40 -106 81 -294 218 -641 398 -990 514 -98 32 -327 92
-419 110 -22 4 -47 9 -55 10 -8 2 -33 6 -55 9 -22 2 -51 7 -65 10 -13 2 -54 7
-90 11 -36 3 -78 8 -95 11 -33 5 -531 13 -537 9z m527 -191 c93 -10 140 -16
195 -25 30 -5 71 -12 90 -15 285 -47 591 -148 866 -285 366 -182 628 -371 906
-652 64 -65 134 -139 155 -165 21 -27 44 -54 51 -62 29 -31 134 -173 199 -271
305 -460 499 -1019 541 -1560 12 -167 4 -612 -12 -661 -3 -8 -7 -36 -10 -64
-17 -168 -97 -489 -177 -703 -383 -1034 -1269 -1815 -2349 -2071 -260 -62
-470 -85 -760 -86 -297 0 -503 24 -775 90 -955 230 -1756 868 -2199 1754 -153
304 -278 710 -312 1016 -3 28 -7 56 -9 62 -18 55 -25 484 -12 668 15 203 68
476 133 692 306 1012 1093 1826 2099 2173 189 64 464 129 625 146 25 3 51 7
59 10 7 2 61 7 120 10 58 4 107 8 109 9 5 5 413 -4 467 -10z"/>
<path d="M3943 4690 l-32 -5 -5 -310 c-3 -170 -7 -321 -9 -335 -3 -14 -8 -57
-12 -97 -3 -39 -8 -82 -10 -95 -2 -13 -6 -51 -9 -85 -4 -35 -9 -68 -11 -75 -2
-7 -7 -31 -9 -53 -5 -43 -13 -86 -22 -125 -3 -14 -7 -32 -9 -40 -2 -8 -8 -35
-14 -60 -7 -25 -14 -55 -16 -67 -3 -12 -25 -89 -50 -171 -57 -188 -58 -229 -6
-282 60 -62 113 -67 175 -16 60 49 215 228 364 421 110 142 260 343 377 505
81 113 151 209 155 213 4 5 -3 -42 -16 -105 -28 -128 -70 -345 -79 -398 -3
-19 -7 -46 -10 -60 -26 -145 -24 -332 3 -425 39 -133 133 -202 256 -189 145
16 375 233 582 549 70 106 69 105 149 265 185 369 268 712 231 953 l-7 49 -42
-6 c-23 -3 -62 -8 -87 -11 -92 -12 -85 -1 -86 -122 -1 -98 -8 -207 -18 -258
-2 -11 -7 -40 -11 -65 -13 -89 -68 -294 -94 -355 -5 -11 -28 -67 -52 -124
-105 -251 -287 -508 -431 -607 -28 -20 -53 -29 -80 -29 -46 0 -62 17 -79 80
-12 44 -6 235 10 325 6 30 13 75 16 100 4 25 17 97 30 160 13 63 26 126 29
140 13 73 70 286 112 420 14 47 30 99 34 115 5 17 15 50 23 75 17 54 14 100
-9 117 -23 17 -110 7 -148 -16 -38 -24 -75 -68 -196 -236 -426 -590 -830
-1138 -836 -1132 -2 2 7 57 21 123 28 135 63 337 71 404 3 25 7 52 9 60 3 8 7
40 10 70 3 30 8 66 10 80 2 14 6 48 9 75 3 28 9 77 13 110 8 66 11 448 3 508
-3 24 -9 37 -20 38 -115 3 -150 3 -177 -1z"/>
<path d="M3058 4625 c-2 -2 -37 -6 -78 -9 -455 -42 -878 -247 -1045 -506 -64
-101 -86 -170 -86 -283 -1 -213 104 -396 316 -550 104 -75 156 -102 166 -86 4
8 19 29 33 47 l24 34 -107 106 c-125 125 -142 146 -175 209 -63 126 -72 264
-22 364 62 125 213 248 404 329 70 30 219 76 276 85 17 3 38 8 46 10 15 4 42
8 150 21 77 9 337 12 350 4 7 -4 -4 -19 -29 -37 -110 -81 -250 -233 -344 -375
-117 -176 -202 -371 -322 -740 -42 -131 -79 -239 -83 -242 -4 -2 -34 -7 -67
-10 -286 -32 -656 -177 -860 -338 -143 -112 -271 -273 -289 -362 -24 -113 -24
-124 -12 -191 15 -76 63 -137 140 -178 35 -18 57 -22 146 -22 89 0 118 4 190
28 141 47 333 151 453 245 55 44 208 204 249 262 81 115 200 345 221 432 6 24
12 27 73 34 37 3 102 4 145 0 l77 -6 6 30 c3 16 8 43 11 58 5 22 2 28 -12 29
-56 2 -238 15 -240 17 -5 4 142 430 172 501 7 17 27 66 45 110 134 333 321
595 527 739 117 82 140 116 112 168 -25 47 -146 70 -381 73 -98 1 -179 1 -180
0z m-585 -1837 c-112 -368 -439 -688 -702 -688 -66 0 -95 8 -128 38 -51 44
-62 146 -28 242 68 192 317 369 630 450 122 31 139 34 207 38 l47 3 -26 -83z"/>
</g>
</svg>
