<svg width="77" height="77" viewBox="0 0 77 77" fill="none" xmlns="http://www.w3.org/2000/svg">
<circle cx="38.5" cy="38.5" r="37.5" stroke="#27E5E9" stroke-width="2"/>
<path d="M35.5086 26.096C36.81 26.096 37.866 26.1813 38.6766 26.352C39.5086 26.5013 39.9246 26.8213 39.9246 27.312C39.9246 27.7387 39.5833 28.1547 38.9006 28.56C37.2153 29.584 35.7113 31.248 34.3886 33.552C33.0873 35.8347 31.7433 39.216 30.3566 43.696C31.6153 43.696 32.5646 43.7493 33.2046 43.856L33.0126 45.136C32.4153 45.0293 31.882 44.976 31.4126 44.976C30.9433 44.976 30.4206 45.0293 29.8446 45.136C29.1833 46.9493 28.4793 48.4213 27.7326 49.552C27.0073 50.6827 26.0686 51.7387 24.9166 52.72C23.7646 53.7013 22.4846 54.512 21.0766 55.152C19.6686 55.792 18.4633 56.112 17.4606 56.112C16.4793 56.112 15.7006 55.8347 15.1246 55.28C14.5486 54.7467 14.2606 54.032 14.2606 53.136C14.2606 51.7707 14.9006 50.416 16.1806 49.072C17.4606 47.728 19.146 46.5973 21.2366 45.68C23.3486 44.7627 25.5673 44.1867 27.8926 43.952C27.9353 43.8667 28.266 42.8533 28.8846 40.912C29.866 37.712 30.9646 35.1733 32.1806 33.296C33.418 31.3973 34.9006 29.8293 36.6286 28.592C36.266 28.5493 35.786 28.528 35.1886 28.528C31.498 28.528 28.4686 29.2 26.1006 30.544C23.7326 31.888 22.5486 33.4027 22.5486 35.088C22.5486 36.176 22.8686 37.1893 23.5086 38.128C24.17 39.0453 25.098 39.9947 26.2926 40.976L25.5246 42.032C22.0473 40.1547 20.3086 37.7867 20.3086 34.928C20.3086 33.264 21.0126 31.7493 22.4206 30.384C23.85 29.0187 25.7166 27.9627 28.0206 27.216C30.346 26.4693 32.842 26.096 35.5086 26.096ZM19.3486 53.936C20.33 53.936 21.354 53.5947 22.4206 52.912C23.5086 52.2293 24.522 51.2267 25.4606 49.904C26.4206 48.5813 27.0926 47.0667 27.4766 45.36C24.7033 45.6373 22.346 46.4267 20.4046 47.728C18.4846 49.0507 17.5246 50.5227 17.5246 52.144C17.5246 52.6987 17.6846 53.136 18.0046 53.456C18.3246 53.776 18.7726 53.936 19.3486 53.936ZM62.6174 26.16L64.9854 25.84C65.1134 26.416 65.1774 27.0453 65.1774 27.728C65.1774 29.4347 64.772 31.376 63.9614 33.552C63.172 35.728 62.212 37.712 61.0814 39.504C59.9507 41.2747 58.7454 42.7787 57.4654 44.016C56.1854 45.232 55.108 45.84 54.2334 45.84C52.356 45.84 51.4174 44.368 51.4174 41.424C51.4174 40.016 51.9187 37.0933 52.9214 32.656C50.4467 36.1547 48.164 39.2267 46.0734 41.872C43.9827 44.496 42.7134 45.808 42.2654 45.808C41.8387 45.808 41.444 45.6373 41.0814 45.296C40.74 44.9547 40.5694 44.6027 40.5694 44.24C40.5694 43.8773 40.6334 43.5147 40.7614 43.152C41.6787 40.4 42.276 37.8187 42.5534 35.408C42.852 32.9973 43.0014 30.8427 43.0014 28.944C43.0014 27.024 42.9907 25.84 42.9694 25.392H45.4654C45.5934 26.0747 45.6574 27.1413 45.6574 28.592C45.6574 30.0213 45.476 32.0267 45.1134 34.608C44.772 37.168 44.3454 39.5467 43.8334 41.744C45.4334 39.696 48.74 35.1947 53.7534 28.24C54.3294 27.408 54.788 26.864 55.1294 26.608C55.492 26.3307 55.9187 26.192 56.4094 26.192C56.9214 26.192 57.1774 26.4373 57.1774 26.928C57.1774 27.12 56.9107 28.0373 56.3774 29.68C55.844 31.3227 55.332 33.36 54.8414 35.792C54.3507 38.224 54.1054 40.0693 54.1054 41.328C54.1054 42.5867 54.4254 43.216 55.0654 43.216C55.5134 43.216 56.068 42.896 56.7294 42.256C58.372 40.6773 59.7694 38.512 60.9214 35.76C62.0734 32.9867 62.6494 30.1387 62.6494 27.216C62.6494 26.7467 62.6387 26.3947 62.6174 26.16Z" fill="#27E5E9"/>
</svg>
